<svg xmlns="http://www.w3.org/2000/svg" viewBox="0 0 139.01 35.18"><defs><style>.cls-1,.cls-3{fill:#115d6c;}.cls-1,.cls-2{fill-rule:evenodd;}.cls-2,.cls-4,.cls-5{fill:#121427;}.cls-5{font-size:5.88px;font-family:Dubai-Medium, Dubai;font-weight:500;}</style></defs><g id="Layer_2" data-name="Layer 2"><g id="Layer_1-2" data-name="Layer 1"><path class="cls-1" d="M36.13,13.52Q33.24,10,31,6.87V23.61h5.13Z"/><path class="cls-2" d="M30,.19c4.37,8.58,12.17,16.06,17.91,23.42h4.52V0H47.14V14.54C42.16,8.15,37.42,5,34.23.17"/><path class="cls-3" d="M0,21.57,2.29,18a12.15,12.15,0,0,0,6.5,2.11,6.62,6.62,0,0,0,3.2-.65,2.06,2.06,0,0,0,1.16-1.93,2.15,2.15,0,0,0-.37-1.3,3.6,3.6,0,0,0-1.32-1c-.64-.32-1.58-.74-2.85-1.24l-.82-.32A25.62,25.62,0,0,1,4.11,12,6.52,6.52,0,0,1,1.89,9.88a6,6,0,0,1-.82-3.25A5.36,5.36,0,0,1,2.32,3,7.3,7.3,0,0,1,5.54.87,12.77,12.77,0,0,1,9.72.19a13.89,13.89,0,0,1,4.13.66A15.63,15.63,0,0,1,17.91,2.8L15.6,6.3a16.78,16.78,0,0,0-3-1.5,8.46,8.46,0,0,0-2.84-.46,4.74,4.74,0,0,0-2.58.57,1.75,1.75,0,0,0-.87,1.54,1.8,1.8,0,0,0,.36,1.09,3.61,3.61,0,0,0,1.28,1,24,24,0,0,0,2.66,1.13l.78.28a33.44,33.44,0,0,1,3.68,1.61,6.63,6.63,0,0,1,2.36,2.15,6.23,6.23,0,0,1,1,3.61,6.24,6.24,0,0,1-1.21,3.91,7.34,7.34,0,0,1-3.31,2.38,13.44,13.44,0,0,1-4.73.79A14.85,14.85,0,0,1,0,21.57Z"/><path class="cls-3" d="M22.23,23.85V.69h4.94V23.85Z"/><path class="cls-3" d="M68,.11,76.28,23v.29h-5.4L69,17.74H60.44l-1.82,5.54H53.29V23L61.62.11ZM61.8,13.66h5.86l-3-8.83Z"/><path class="cls-3" d="M93.65.11V4.44H86.29V23.28H81.35V4.44H74V.11Z"/><path class="cls-3" d="M115,23v.29h-5.68l-5.81-8.44h-2v8.44H96.65V.11h7.76a12.27,12.27,0,0,1,5.13,1,6.79,6.79,0,0,1,3.06,2.58,6.94,6.94,0,0,1,1,3.69,7.25,7.25,0,0,1-1.22,4.21,7.17,7.17,0,0,1-3.57,2.62ZM101.59,11h2.22a5.88,5.88,0,0,0,3.38-.83,3.05,3.05,0,0,0,1.19-2.71A2.92,2.92,0,0,0,107.32,5a4.71,4.71,0,0,0-3-.82h-2.77Z"/><path class="cls-3" d="M130.68.11,139,23v.29h-5.39l-1.86-5.54h-8.58l-1.83,5.54H116V23L124.36.11Zm-6.14,13.55h5.86l-3-8.83Z"/><path class="cls-4" d="M3,28.4a1.15,1.15,0,0,1,.49.43,1.19,1.19,0,0,1,.17.63,1.36,1.36,0,0,1-.17.67A1.17,1.17,0,0,1,3,30.6a1.93,1.93,0,0,1-.84.17h-.6v1.37H.84V28.25H2.17A2,2,0,0,1,3,28.4Zm-.05,1.09a.63.63,0,0,0-.2-.5.84.84,0,0,0-.58-.17H1.53V30.2h.54C2.65,30.2,2.94,30,2.94,29.49Z"/><path class="cls-4" d="M4.89,32a1.34,1.34,0,0,1-.55-.58,2.08,2.08,0,0,1-.17-.85V28.25h.68v2.21a1.41,1.41,0,0,0,.24.87.91.91,0,0,0,.77.31c.64,0,1-.38,1-1.13V28.25h.69v2.31a1.91,1.91,0,0,1-.22,1,1.36,1.36,0,0,1-.6.54,2.21,2.21,0,0,1-.87.17A1.73,1.73,0,0,1,4.89,32Z"/><path class="cls-4" d="M12.44,31.55h1.85v.59H11.76V28.25h.68Z"/><path class="cls-4" d="M14.85,32.14V28.25h.69v3.89Z"/><path class="cls-4" d="M17.05,32a1.52,1.52,0,0,1-.6-.7,2.64,2.64,0,0,1-.19-1.06A2.36,2.36,0,0,1,16.51,29a1.43,1.43,0,0,1,.65-.66,2,2,0,0,1,.91-.21,2.48,2.48,0,0,1,.68.09,2.65,2.65,0,0,1,.6.27l-.28.51a1.84,1.84,0,0,0-1-.28,1,1,0,0,0-.86.37A1.77,1.77,0,0,0,17,30.18a1.68,1.68,0,0,0,.3,1.07,1.05,1.05,0,0,0,.87.38,1.61,1.61,0,0,0,.51-.07,2.13,2.13,0,0,0,.46-.22l.27.5a3.39,3.39,0,0,1-.63.28,2,2,0,0,1-.66.1A1.93,1.93,0,0,1,17.05,32Z"/><path class="cls-4" d="M24,28.25h.69v3.89H24V30.45H22v1.69h-.68V28.25H22v1.62h2Z"/><path class="cls-4" d="M26.28,31.57h1.85v.57H25.59V28.25H28.1v.57H26.28v1.06h1.58l-.07.56H26.28Z"/><path class="cls-4" d="M30.77,28.25l1.44,3.85v0h-.72l-.37-1H29.56l-.36,1h-.7v0l1.43-3.85Zm-1,2.31h1.18l-.59-1.67Z"/><path class="cls-4" d="M33.45,31.55H35.3v.59H32.76V28.25h.69Z"/><path class="cls-4" d="M38.1,28.25v.59H36.82v3.3h-.69v-3.3h-1.3v-.59Z"/><path class="cls-4" d="M41.33,28.25H42v3.89h-.68V30.45h-2v1.69h-.68V28.25h.68v1.62h2Z"/><path class="cls-4" d="M46.48,28.4a1.15,1.15,0,0,1,.49.43,1.19,1.19,0,0,1,.17.63,1.36,1.36,0,0,1-.17.67,1.17,1.17,0,0,1-.51.47,1.92,1.92,0,0,1-.83.17H45v1.37h-.69V28.25h1.33A2,2,0,0,1,46.48,28.4Zm0,1.09a.63.63,0,0,0-.2-.5.82.82,0,0,0-.58-.17H45V30.2h.54C46.14,30.2,46.43,30,46.43,29.49Z"/><path class="cls-4" d="M48.44,31.57h1.85v.57H47.75V28.25h2.51v.57H48.44v1.06H50l-.08.56h-1.5Z"/><path class="cls-4" d="M51.36,32.1a2,2,0,0,1-.64-.34l.31-.48a2,2,0,0,0,.56.28,2.15,2.15,0,0,0,.55.08,1.15,1.15,0,0,0,.61-.13A.46.46,0,0,0,53,31.1a.5.5,0,0,0-.08-.27.53.53,0,0,0-.24-.19,3.33,3.33,0,0,0-.51-.22l-.11,0a4.91,4.91,0,0,1-.62-.27,1.13,1.13,0,0,1-.37-.35.91.91,0,0,1-.15-.54.89.89,0,0,1,.2-.58,1.09,1.09,0,0,1,.51-.35,1.84,1.84,0,0,1,.66-.12,2.35,2.35,0,0,1,1.34.41l-.31.48a2.31,2.31,0,0,0-.51-.24,1.51,1.51,0,0,0-.53-.08,1,1,0,0,0-.49.11.4.4,0,0,0-.18.35.34.34,0,0,0,.07.22.65.65,0,0,0,.23.18,2.68,2.68,0,0,0,.46.2l.12,0a3.94,3.94,0,0,1,.63.27,1.32,1.32,0,0,1,.42.36,1,1,0,0,1,.17.6,1.07,1.07,0,0,1-.19.63,1.06,1.06,0,0,1-.53.39,2,2,0,0,1-.77.13A2.66,2.66,0,0,1,51.36,32.1Z"/><path class="cls-4" d="M57.21,28.25v.59H55.93v3.3h-.69v-3.3h-1.3v-.59Z"/><path class="cls-4" d="M58.05,32.1a2,2,0,0,1-.65-.34l.32-.48a1.79,1.79,0,0,0,.55.28,2.22,2.22,0,0,0,.55.08,1.13,1.13,0,0,0,.61-.13.46.46,0,0,0,.21-.41.6.6,0,0,0-.07-.27.57.57,0,0,0-.25-.19,3.15,3.15,0,0,0-.5-.22l-.12,0a4.69,4.69,0,0,1-.61-.27,1.16,1.16,0,0,1-.38-.35,1,1,0,0,1-.14-.54.88.88,0,0,1,.19-.58,1.09,1.09,0,0,1,.51-.35,1.85,1.85,0,0,1,.67-.12,2.4,2.4,0,0,1,1.34.41l-.32.48a2.31,2.31,0,0,0-.51-.24,1.48,1.48,0,0,0-.53-.08,1,1,0,0,0-.49.11.4.4,0,0,0-.18.35.34.34,0,0,0,.07.22.65.65,0,0,0,.23.18,3.09,3.09,0,0,0,.46.2l.12,0a4.1,4.1,0,0,1,.64.27,1.29,1.29,0,0,1,.41.36,1,1,0,0,1,.17.6,1,1,0,0,1-.71,1,2.13,2.13,0,0,1-.78.13A2.55,2.55,0,0,1,58.05,32.1Z"/><path class="cls-4" d="M63,32a1.52,1.52,0,0,1-.6-.7,2.64,2.64,0,0,1-.19-1.06A2.36,2.36,0,0,1,62.49,29a1.41,1.41,0,0,1,.66-.66,1.93,1.93,0,0,1,.9-.21,2.43,2.43,0,0,1,.68.09,2.46,2.46,0,0,1,.6.27l-.28.51a1.82,1.82,0,0,0-1-.28,1,1,0,0,0-.86.37A1.77,1.77,0,0,0,63,30.18a1.68,1.68,0,0,0,.3,1.07,1.05,1.05,0,0,0,.87.38,1.61,1.61,0,0,0,.51-.07,2.13,2.13,0,0,0,.46-.22l.27.5a2.9,2.9,0,0,1-.63.28,2,2,0,0,1-.66.1A1.93,1.93,0,0,1,63,32Z"/><path class="cls-4" d="M66.45,32a1.58,1.58,0,0,1-.64-.71,2.55,2.55,0,0,1-.21-1.07,2.26,2.26,0,0,1,.26-1.12,1.59,1.59,0,0,1,.69-.67,2.18,2.18,0,0,1,1-.22,1.93,1.93,0,0,1,1,.26,1.61,1.61,0,0,1,.63.71,2.55,2.55,0,0,1,.21,1.07,2.14,2.14,0,0,1-.26,1.12,1.57,1.57,0,0,1-.68.67,2.05,2.05,0,0,1-1,.22A1.93,1.93,0,0,1,66.45,32Zm1.68-.49a1.1,1.1,0,0,0,.4-.5,2,2,0,0,0,.13-.76,2.26,2.26,0,0,0-.12-.77,1.13,1.13,0,0,0-.39-.51,1,1,0,0,0-.64-.19,1.2,1.2,0,0,0-.67.18,1.1,1.1,0,0,0-.4.5,2,2,0,0,0-.13.76,1.79,1.79,0,0,0,.29,1.07,1,1,0,0,0,.87.4A1.16,1.16,0,0,0,68.13,31.47Z"/><path class="cls-4" d="M73.39,28.25v3.89h-.77l-1.46-2.21L71,29.76l-.15-.25-.12-.24v2.87h-.68V28.25h.75l1.53,2.32.11.16.13.21c0,.07.07.14.1.2V28.25Z"/><path class="cls-4" d="M77.23,28.25v.59H75.94v3.3h-.68v-3.3H74v-.59Z"/><path class="cls-4" d="M80.76,32.1v0H80l-1-1.47h-.47v1.47h-.68V28.25h1.28a2,2,0,0,1,.81.15,1.07,1.07,0,0,1,.49.42,1.12,1.12,0,0,1,.17.61,1.19,1.19,0,0,1-.23.72,1.21,1.21,0,0,1-.66.44Zm-2.29-2H79a1,1,0,0,0,.62-.17.61.61,0,0,0,.22-.51.58.58,0,0,0-.2-.47.86.86,0,0,0-.57-.16h-.59Z"/><path class="cls-4" d="M81.87,32a1.51,1.51,0,0,1-.63-.71A2.55,2.55,0,0,1,81,30.18a2.16,2.16,0,0,1,.26-1.12,1.59,1.59,0,0,1,.69-.67,2.15,2.15,0,0,1,1-.22,1.93,1.93,0,0,1,1,.26,1.61,1.61,0,0,1,.63.71,2.55,2.55,0,0,1,.21,1.07,2.24,2.24,0,0,1-.26,1.12,1.54,1.54,0,0,1-.69.67,2,2,0,0,1-1,.22A1.93,1.93,0,0,1,81.87,32Zm1.69-.49A1.1,1.1,0,0,0,84,31a2,2,0,0,0,.13-.76,2,2,0,0,0-.13-.77,1,1,0,0,0-.38-.51,1,1,0,0,0-.64-.19,1.17,1.17,0,0,0-.67.18,1.1,1.1,0,0,0-.4.5,2,2,0,0,0-.13.76A1.72,1.72,0,0,0,82,31.25a1,1,0,0,0,.86.4A1.22,1.22,0,0,0,83.56,31.47Z"/><path class="cls-4" d="M86.2,31.55h1.85v.59H85.51V28.25h.69Z"/><path class="cls-4" d="M90.34,32.1a2.12,2.12,0,0,1-.65-.34l.32-.48a1.91,1.91,0,0,0,.55.28,2.22,2.22,0,0,0,.55.08,1.13,1.13,0,0,0,.61-.13.46.46,0,0,0,.21-.41.5.5,0,0,0-.07-.27.57.57,0,0,0-.25-.19,2.78,2.78,0,0,0-.5-.22l-.12,0a4.69,4.69,0,0,1-.61-.27,1.16,1.16,0,0,1-.38-.35,1,1,0,0,1-.14-.54.84.84,0,0,1,.2-.58,1.06,1.06,0,0,1,.5-.35,1.85,1.85,0,0,1,.67-.12,2.38,2.38,0,0,1,1.34.41l-.32.48a2.31,2.31,0,0,0-.51-.24,1.46,1.46,0,0,0-.52-.08,1,1,0,0,0-.49.11.39.39,0,0,0-.19.35.41.41,0,0,0,.07.22.65.65,0,0,0,.23.18,3.09,3.09,0,0,0,.46.2l.13,0a3.94,3.94,0,0,1,.63.27,1.29,1.29,0,0,1,.41.36,1,1,0,0,1,.17.6,1,1,0,0,1-.19.63,1.08,1.08,0,0,1-.52.39,2.06,2.06,0,0,1-.78.13A2.55,2.55,0,0,1,90.34,32.1Z"/><path class="cls-4" d="M94,31.57h1.85v.57H93.34V28.25h2.51v.57H94v1.06h1.58l-.08.56H94Z"/><path class="cls-4" d="M99.61,32.1v0h-.78l-1-1.47h-.47v1.47h-.68V28.25h1.28a2,2,0,0,1,.81.15,1.07,1.07,0,0,1,.49.42,1.12,1.12,0,0,1,.17.61,1.19,1.19,0,0,1-.23.72,1.21,1.21,0,0,1-.66.44Zm-2.3-2h.52a1,1,0,0,0,.62-.17.59.59,0,0,0,.22-.51.58.58,0,0,0-.2-.47.85.85,0,0,0-.56-.16h-.6Z"/><path class="cls-4" d="M102.58,28.25h.69v0l-1.43,3.85h-.79l-1.43-3.85v0h.72l1.12,3.21Z"/><path class="cls-4" d="M103.83,32.14V28.25h.68v3.89Z"/><path class="cls-4" d="M106,32a1.52,1.52,0,0,1-.6-.7,2.83,2.83,0,0,1-.19-1.06,2.36,2.36,0,0,1,.25-1.17,1.45,1.45,0,0,1,.66-.66,1.93,1.93,0,0,1,.9-.21,2.43,2.43,0,0,1,.68.09,2.3,2.3,0,0,1,.6.27l-.27.51a1.87,1.87,0,0,0-1-.28,1,1,0,0,0-.86.37,1.77,1.77,0,0,0-.27,1.05,1.68,1.68,0,0,0,.3,1.07,1.05,1.05,0,0,0,.87.38,1.61,1.61,0,0,0,.51-.07,2.13,2.13,0,0,0,.46-.22l.27.5a3.06,3.06,0,0,1-.62.28,2.09,2.09,0,0,1-.67.1A1.93,1.93,0,0,1,106,32Z"/><path class="cls-4" d="M109.58,31.57h1.85v.57h-2.54V28.25h2.51v.57h-1.82v1.06h1.58l-.07.56h-1.51Z"/><path class="cls-4" d="M112.51,32.1a2,2,0,0,1-.65-.34l.32-.48a1.79,1.79,0,0,0,.55.28,2.22,2.22,0,0,0,.55.08,1.13,1.13,0,0,0,.61-.13.46.46,0,0,0,.21-.41.5.5,0,0,0-.07-.27.57.57,0,0,0-.25-.19,2.78,2.78,0,0,0-.5-.22l-.12,0a4.69,4.69,0,0,1-.61-.27,1.16,1.16,0,0,1-.38-.35,1,1,0,0,1-.14-.54.88.88,0,0,1,.19-.58,1.09,1.09,0,0,1,.51-.35,1.85,1.85,0,0,1,.67-.12,2.38,2.38,0,0,1,1.34.41l-.32.48a2.31,2.31,0,0,0-.51-.24,1.48,1.48,0,0,0-.53-.08,1,1,0,0,0-.49.11.4.4,0,0,0-.18.35.41.41,0,0,0,.07.22.65.65,0,0,0,.23.18,3.09,3.09,0,0,0,.46.2l.12,0a3.72,3.72,0,0,1,.64.27,1.29,1.29,0,0,1,.41.36,1,1,0,0,1,.17.6,1,1,0,0,1-.19.63,1.08,1.08,0,0,1-.52.39,2.09,2.09,0,0,1-.78.13A2.55,2.55,0,0,1,112.51,32.1Z"/><path class="cls-4" d="M117.49,32a1.52,1.52,0,0,1-.6-.7,2.64,2.64,0,0,1-.19-1.06A2.36,2.36,0,0,1,117,29a1.41,1.41,0,0,1,.66-.66,1.93,1.93,0,0,1,.9-.21,2.43,2.43,0,0,1,.68.09,2.65,2.65,0,0,1,.6.27l-.28.51a1.82,1.82,0,0,0-1-.28,1,1,0,0,0-.86.37,1.77,1.77,0,0,0-.27,1.05,1.68,1.68,0,0,0,.3,1.07,1.05,1.05,0,0,0,.87.38,1.61,1.61,0,0,0,.51-.07,2.13,2.13,0,0,0,.46-.22l.27.5a2.9,2.9,0,0,1-.63.28,2,2,0,0,1-.66.1A1.93,1.93,0,0,1,117.49,32Z"/><path class="cls-4" d="M120.91,32a1.51,1.51,0,0,1-.63-.71,2.41,2.41,0,0,1-.22-1.07,2.26,2.26,0,0,1,.26-1.12,1.59,1.59,0,0,1,.69-.67,2.18,2.18,0,0,1,1-.22,1.93,1.93,0,0,1,1,.26,1.61,1.61,0,0,1,.63.71,2.55,2.55,0,0,1,.21,1.07,2.14,2.14,0,0,1-.26,1.12,1.57,1.57,0,0,1-.68.67,2.05,2.05,0,0,1-1,.22A1.93,1.93,0,0,1,120.91,32Zm1.68-.49a1.1,1.1,0,0,0,.4-.5,2,2,0,0,0,.13-.76,2.26,2.26,0,0,0-.12-.77,1.06,1.06,0,0,0-.39-.51,1,1,0,0,0-.64-.19,1.14,1.14,0,0,0-.66.18,1.12,1.12,0,0,0-.41.5,2,2,0,0,0-.13.76,1.79,1.79,0,0,0,.29,1.07,1,1,0,0,0,.87.4A1.16,1.16,0,0,0,122.59,31.47Z"/><path class="cls-4" d="M124.4,32.15a.46.46,0,0,1-.16-.15.54.54,0,0,1,0-.21.46.46,0,0,1,0-.21.41.41,0,0,1,.16-.16.54.54,0,0,1,.21-.05.54.54,0,0,1,.22.05.46.46,0,0,1,.15.16.37.37,0,0,1,.06.21A.42.42,0,0,1,125,32a.54.54,0,0,1-.15.15.43.43,0,0,1-.22.06A.42.42,0,0,1,124.4,32.15Z"/><path class="cls-4" d="M127.75,31.55h1.85v.59h-2.54V28.25h.69Z"/><path class="cls-4" d="M130.31,32.15a.46.46,0,0,1-.16-.15.41.41,0,0,1-.05-.21.36.36,0,0,1,.05-.21.41.41,0,0,1,.16-.16.5.5,0,0,1,.21-.05.46.46,0,0,1,.21.05.41.41,0,0,1,.16.16.37.37,0,0,1,.06.21.42.42,0,0,1-.06.21.46.46,0,0,1-.16.15.37.37,0,0,1-.21.06A.39.39,0,0,1,130.31,32.15Z"/><path class="cls-4" d="M132.26,31.55h1.85v.59h-2.54V28.25h.69Z"/><path class="cls-4" d="M134.82,32.15a.46.46,0,0,1-.16-.15.41.41,0,0,1,0-.21.36.36,0,0,1,0-.21.41.41,0,0,1,.16-.16.5.5,0,0,1,.21-.05.46.46,0,0,1,.21.05.41.41,0,0,1,.16.16.37.37,0,0,1,.06.21.42.42,0,0,1-.06.21.46.46,0,0,1-.16.15.37.37,0,0,1-.21.06A.39.39,0,0,1,134.82,32.15Z"/><path class="cls-4" d="M136.61,32a1.48,1.48,0,0,1-.61-.7,2.83,2.83,0,0,1-.19-1.06,2.48,2.48,0,0,1,.25-1.17,1.5,1.5,0,0,1,.66-.66,1.94,1.94,0,0,1,.91-.21,2.41,2.41,0,0,1,.67.09,2.3,2.3,0,0,1,.6.27l-.27.51a1.87,1.87,0,0,0-1-.28,1,1,0,0,0-.86.37,1.7,1.7,0,0,0-.28,1.05,1.68,1.68,0,0,0,.3,1.07,1.05,1.05,0,0,0,.87.38,1.57,1.57,0,0,0,.51-.07,1.93,1.93,0,0,0,.46-.22l.27.5a3.06,3.06,0,0,1-.62.28,2.09,2.09,0,0,1-.67.1A1.89,1.89,0,0,1,136.61,32Z"/><text class="cls-5" transform="translate(7.84 32.07)">B</text></g></g></svg>