<svg xmlns="http://www.w3.org/2000/svg" viewBox="0 0 456.27 495.66"><defs><style>.cls-1{fill:#115d6c;}</style></defs><g id="Layer_2" data-name="Layer 2"><g id="Layer_1-2" data-name="Layer 1"><path class="cls-1" d="M0,365.49c-.57,20,4.61,31.56,10,38.05v-1a188.12,188.12,0,0,1,2.81-28.44Z"/><path class="cls-1" d="M2.73,210a4.39,4.39,0,0,0,2.66,1.35c2.59.13,4.8-3.62,5.62-5.26,7.45-14.9,21.1-29.22,26.83-34.88A194.32,194.32,0,0,1,40,145.86c-5-4.89-16.47-13.2-25.12-19.22C-.77,173.85,2.66,208.71,2.69,209.07Z"/><path class="cls-1" d="M16.73,297.87c-6.34,13.05-11.37,28.62-14.6,48l14.69,9.8a182.62,182.62,0,0,1,18.33-45.5Z"/><path class="cls-1" d="M28.6,388.42l51.29,22,.64-1.92a193.09,193.09,0,0,1,13.32-30.66l-52.8-39.6a196.72,196.72,0,0,0-12.45,50.2Z"/><path class="cls-1" d="M74.87,61.52c-14.3,2.27-37.7,12-53.62,48.28,5.66,3.89,15.12,10.51,22.74,16.53A191.7,191.7,0,0,1,74.87,61.52Z"/><path class="cls-1" d="M35.38,485.62l.51,1.61c.08.23.33.88.49,1.28,2,4.63,5.48,7.28,9.14,7.13,3.84-.17,7.1-3.28,8.75-8.35,4.29-13.21,10-30.21,16.18-48.66L74.33,427,27.64,407c.18,13.94,1.3,57.16,7.74,78.59Z"/><path class="cls-1" d="M393.81,276.32a132.14,132.14,0,0,1,17.62,19.24l19.43-12.95c-7.37-11.35-15.74-20.87-24.54-30A191.54,191.54,0,0,1,393.81,276.32Z"/><path class="cls-1" d="M25.39,282.61l19.44,13a130.85,130.85,0,0,1,20.29-21.73,192.24,192.24,0,0,1-12.3-24.15C43,259.7,33.56,270,25.39,282.61Z"/><path class="cls-1" d="M422.71,174.14c6.64,6.87,17.57,19.18,24,31.94.82,1.64,3,5.42,5.62,5.26a3.48,3.48,0,0,0,2.7-1.64c0-1,3.47-35.86-12.12-83.06-7.45,5.2-17,12.07-22.7,17a195,195,0,0,1,2.55,30.48Z"/><path class="cls-1" d="M230.23,350c96.5,0,175-78.5,175-175S326.73,0,230.23,0s-175,78.5-175,175,78.51,175,175,175ZM125.3,293.61c-18.12-27.2-27.09-62.5-27.45-64l17-4.25c.08.34,8.62,33.9,25.05,58.52Zm204.8,0-14.55-9.71c16.46-24.7,25-58.18,25-58.52l17,4.24c-.38,1.49-9.34,36.78-27.47,64Zm-19-248.7c2.7,1.53,66,39,56.87,148.32l-17.44-1.46c8.14-97.61-45.86-130.35-48.16-131.7ZM250.24,149.67c1.63.82,39.84,20.68,39.84,86.58S251.87,322,250.24,322.83l-7.83-15.65c1.18-.62,30.17-16.46,30.17-70.93s-29-70.32-30.24-71Zm-30.16,34.08h17.5v105h-17.5Zm-12.66-34.08,3.91,7.83,4,7.79c-1.24.64-30.24,16.49-30.24,71s29,70.31,30.24,71l-7.9,15.62c-1.63-.83-39.84-20.69-39.84-86.58s38.21-85.76,39.84-86.58ZM147.14,44.91l4.34,7.59,4.38,7.58c-2.31,1.34-56.3,34.09-48.16,131.7l-17.44,1.45c-9.1-109.3,54.18-146.78,56.88-148.32Z"/><path class="cls-1" d="M436.42,109.8c-14.77-33.65-35.92-44.46-50.36-47.65A192.05,192.05,0,0,1,416,124.53c7.14-5.49,15.33-11.23,20.44-14.73Z"/><path class="cls-1" d="M456.22,365.49l-12.84,8.57a188,188,0,0,1,2.81,28.44v1c5.41-6.49,10.6-18.07,10-38.05Z"/><path class="cls-1" d="M415.18,338.25l-52.76,39.58a191.78,191.78,0,0,1,13.32,30.66l.64,1.92,51.26-22a198.3,198.3,0,0,0-12.46-50.18Z"/><path class="cls-1" d="M383.81,290.89a193.94,193.94,0,0,1-50.57,46.6,182.93,182.93,0,0,1,20.12,25.24L407.66,322a122.24,122.24,0,0,0-23.85-31.12Z"/><path class="cls-1" d="M385.82,438.64c6.19,18.45,11.9,35.45,16.18,48.66,1.65,5.07,4.92,8.19,8.75,8.35s7.2-2.52,9.16-7.18c.17-.4.39-1,.48-1.25l.45-1.42c6.48-21.31,7.61-64.78,7.8-78.76l-46.69,20Z"/><path class="cls-1" d="M439.52,297.87l-18.41,12.28a182.77,182.77,0,0,1,18.33,45.5l14.69-9.79C450.9,326.49,445.87,310.92,439.52,297.87Z"/><path class="cls-1" d="M316.33,347.09V367.5a37.47,37.47,0,0,1-8.75,23.66v16.63c6.92,5.93,17.77,18.74,24.29,43.94.19.3.41.61.62.91.26-.42.55-.94.86-1.57,7.84-15.65,7.84-41.77,7.84-74.84v0a167,167,0,0,0-23.71-29.69c-.38.2-.76.4-1.15.59Z"/><path class="cls-1" d="M158.83,353.71V367.5c.07,4.05,1.52,17.5,17.5,17.5h105c16,0,17.44-13.45,17.5-17.56V354.82a191.82,191.82,0,0,1-140-1.11Z"/><path class="cls-1" d="M237.58,402.5v78.05A61.29,61.29,0,0,0,290.08,420V401.59a41.1,41.1,0,0,1-8.75.91Z"/><path class="cls-1" d="M167.58,401.59V420a61.3,61.3,0,0,0,52.5,60.55V402.5H176.33a41.24,41.24,0,0,1-8.75-.91Z"/><path class="cls-1" d="M74.94,288.57A121.27,121.27,0,0,0,48.58,322l54.33,40.74a181.74,181.74,0,0,1,21.75-26.9,193.87,193.87,0,0,1-49.72-47.26Z"/><path class="cls-1" d="M141.33,345.66l-1.08-.56a165.75,165.75,0,0,0-25.17,31.1v.05c0,33.07,0,59.18,7.84,74.84.31.62.59,1.14.86,1.57.21-.3.43-.62.62-.92,7-27,18.94-39.75,25.7-45.08V391.19a37.53,37.53,0,0,1-8.75-23.67V345.66Z"/></g></g></svg>