<svg xmlns="http://www.w3.org/2000/svg" viewBox="0 0 288.79 288.77"><defs><style>.cls-1{fill:#115d6c;}</style></defs><g id="Layer_2" data-name="Layer 2"><g id="Layer_1-2" data-name="Layer 1"><path class="cls-1" d="M256.56,212.74a13.94,13.94,0,0,0-19.12-.51l-16.81-16.8a78.9,78.9,0,0,0-44.5-117.64,88.38,88.38,0,1,0-98.34,98.34,78.89,78.89,0,0,0,117.65,44.48l16.81,16.81a14,14,0,0,0,.5,19.13l22.94,22.94a31,31,0,1,0,43.82-43.82ZM9.33,88.44A79.1,79.1,0,0,1,166.48,75.62a76,76,0,0,0-38.59,3.23l10.39-10.39a4.68,4.68,0,0,0,1.36-3.29v-14h-9.3v12l-7,7a18.62,18.62,0,0,0-11.61-9.08V55.86a23.16,23.16,0,0,0-8.32-17.69l.37-.37a17.7,17.7,0,0,1,12.6-5.21V23.28a27,27,0,0,0-19.18,7.94l-2.36,2.37a20.9,20.9,0,0,0-12.76,0L79.7,31.22a26.94,26.94,0,0,0-19.18-7.94v9.31a17.67,17.67,0,0,1,12.6,5.21l.38.38a23.09,23.09,0,0,0-8.32,17.68v5.31a18.57,18.57,0,0,0-11.61,9.08l-7-7v-12H37.25v14a4.65,4.65,0,0,0,1.37,3.29l12.6,12.59v28.33L34.46,122a4.65,4.65,0,0,0-1.86,3.72v14h9.31V128l9.31-7a23.3,23.3,0,0,0,23.27,23.27h.59a78.06,78.06,0,0,0-.59,9.3,79.46,79.46,0,0,0,1.14,12.88,79.58,79.58,0,0,1-66.3-78ZM76.81,135H74.49a13.95,13.95,0,0,1-14-14V79.13a9.3,9.3,0,0,1,9.3-9.31h14v46.62a78.31,78.31,0,0,0-7,18.54ZM88.45,41.89a14,14,0,0,1,14,14v4.65H74.49V55.86a14,14,0,0,1,14-14ZM93.1,69.82h14a9.3,9.3,0,0,1,9.31,9.31v4.69A79.78,79.78,0,0,0,93.1,102.71Zm-9.3,83.77a69.89,69.89,0,1,1,20.47,49.35A69.81,69.81,0,0,1,83.8,153.59Zm131.4,49.55,15.6,15.61-12,12-15.61-15.61a79.23,79.23,0,0,0,12-12Zm42.39,76.11a21.49,21.49,0,0,1-15.32-6.34L219.33,250a4.66,4.66,0,0,1,0-6.59l24.07-24.07a4.67,4.67,0,0,1,6.58,0l22.94,22.94a21.67,21.67,0,0,1-15.32,37Z"/></g></g></svg>