<svg xmlns="http://www.w3.org/2000/svg" viewBox="0 0 129.86 283.34"><defs><style>.cls-1{fill:#115d6c;}</style></defs><g id="Layer_2" data-name="Layer 2"><g id="Layer_1-2" data-name="Layer 1"><path class="cls-1" d="M85.89,0a3,3,0,0,0-3,3,3,3,0,0,0,6,0A3,3,0,0,0,85.89,0ZM50.16,13.39c-2.12,4.19-.94,8.9,1.22,12.75a22.87,22.87,0,0,0,6.47,7,20.51,20.51,0,0,0-5.15,6.19,9,9,0,0,0,1,7,12.58,12.58,0,0,0,7.69,3.51c-1.26,4.67,3.47,9.2,6.47,9.24,6.46,0,10.61-3.4,14.44-5.36A13.19,13.19,0,0,0,97,56.15c6.22-4.33,5.58-10,1.5-15,2.61-5,4.84-9.26,5-13.67-.41-6.17-4.72-9.5-9.47-11.92-2-4.43-5.71-7.33-10-7.75-4.07-.4-8.36,1-12.56,3.41a14.38,14.38,0,0,0-6.47-3.69c-5.81-.2-10.65.62-14.72,5.91Zm13.23-.18c2,.48,3.84,2.12,5.34,3.6a3.14,3.14,0,0,0,3.84.37c4.12-2.71,8.06-3.87,10.79-3.6s4.5,1.48,5.72,5.07a3,3,0,0,0,1.5,1.67c3.69,1.57,6,3.73,6.84,6.92C97.35,29.68,95.2,34,92.17,40a3,3,0,0,0,.57,3.42c3,3,3.74,5,1.59,7.48-2.32,1.14-6.85.73-8.91-2.31a3.12,3.12,0,0,0-3.65-1.11c-5.49,2.16-8.9,5.23-13.23,5.54-2.39-1.6-1.14-3.26-.65-5.45a3.1,3.1,0,0,0-3-3.23c-2.78,0-4.35-.09-6.38-1.85-.94-2.33,2.44-4.11,4.13-5.63a5.76,5.76,0,0,0,2.25-4.34,3,3,0,0,0-1.69-2.68,17.24,17.24,0,0,1-6.56-6.56c-1.49-2.64-1.82-5.11-1.13-6.83,2.55-2.52,4.84-3.38,7.88-3.24Zm49.5,19.3a3,3,0,1,0,3,3A3,3,0,0,0,112.89,32.51Zm-66,3a3,3,0,1,0,3,3A3,3,0,0,0,46.88,35.46Zm63,14.78a3,3,0,1,0,3,2.95A3,3,0,0,0,109.89,50.24ZM40,74.71l-4.22,4.16c15.58,15.11,19.42,23.47,20,42.57C52.54,124.3,51,129,50.44,132.52a29.14,29.14,0,0,0-8,7.67,19.46,19.46,0,0,0-3.18,7.66L26.82,137.33,19,146.28l17.25,14.6a95.44,95.44,0,0,0-2.63,10L26,166.33c-3.56-1.76-6-.16-8.25,2.12L6.85,187.2,0,189.41l3.84,11.18,9-3A6.11,6.11,0,0,0,16.13,195l9-15.52,6.47,3.88c-1.35,9.87-2.2,20-2.53,28.08L15,216a6.12,6.12,0,0,0-3.94,7l8.72,34.26L17,273.83l11.91,1.94,3-17.74a5.89,5.89,0,0,0-.1-2.4l-7.69-30.2,5-1.57a95.45,95.45,0,0,0,10.22,37.87,54.8,54.8,0,0,0,10.88,15c4.17,3.85,9.08,6.65,14.72,6.65s10.65-2.8,14.81-6.65a54.59,54.59,0,0,0,10.88-15,95,95,0,0,0,10.13-38l5.06,1.66-7.69,30.2A5.72,5.72,0,0,0,98,258l3,17.73,11.91-1.94-2.82-16.53L118.8,223a6.12,6.12,0,0,0-3.94-7L100.7,211.3c-.36-8.06-1.21-18.12-2.63-27.89l6.66-4,9,15.51a6,6,0,0,0,3.28,2.68l9,3,3.84-11.18L123,187.2l-10.87-18.75a6.19,6.19,0,0,0-6.1-3c-3.61,1.19-6.85,3.58-10.22,5.55a99.42,99.42,0,0,0-2.53-10l17.54-14.77-7.79-9L90.29,148a19.49,19.49,0,0,0-3-7.76,28.09,28.09,0,0,0-7.87-7.66c-.88-5-2-8.51-5.44-11.45.59-18.91,4.55-27.25,20.06-42.3l-4.22-4.16c-15.36,14.91-20.67,25.48-21.75,43.87a16.3,16.3,0,0,0-6.38,0c-1.06-18.39-6.29-29-21.66-43.87ZM64.88,130c1.16,0,1.49.12,1.88.55s1.12,1.85,1.12,5.36a6,6,0,0,0,3.29,5.26,21.55,21.55,0,0,1,6.37,6.1,24.21,24.21,0,0,1-12.66,3.42,23.81,23.81,0,0,1-12.65-3.51c1.52-2.49,4.09-4.37,6.37-6a6,6,0,0,0,3.29-5.26c0-3.38.9-4.73,1.4-5.26a1.84,1.84,0,0,1,1.59-.65ZM49.32,159.21a35.09,35.09,0,0,0,9.56,2.87V268.47A51.49,51.49,0,0,1,50,256.37a85.23,85.23,0,0,1-9.09-37.68,282,282,0,0,1,2.62-34c1.42-10.29,3.81-20.32,5.82-25.49Zm30.85.19c2,5.26,4.42,15.23,5.9,25.39a264.06,264.06,0,0,1,2.82,33.9,85.24,85.24,0,0,1-9,37.68c-2.57,4.48-5.46,8.94-9,12.19V162.07a35.5,35.5,0,0,0,9.29-2.68Z"/></g></g></svg>